<?xml version="1.0" standalone="no"?>
<!DOCTYPE svg PUBLIC "-//W3C//DTD SVG 20010904//EN"
 "http://www.w3.org/TR/2001/REC-SVG-20010904/DTD/svg10.dtd">
<svg version="1.0" xmlns="http://www.w3.org/2000/svg"
 width="600.000000pt" height="600.000000pt" viewBox="0 0 600.000000 600.000000"
 preserveAspectRatio="xMidYMid meet">
<metadata>
Created by potrace 1.11, written by Peter Selinger 2001-2013
</metadata>
<g transform="translate(0.000000,600.000000) scale(0.100000,-0.100000)"
fill="#000000" stroke="none">
<path d="M2555 4154 c-112 -19 -126 -22 -210 -44 -89 -24 -238 -81 -291 -112
l-34 -20 0 -934 0 -934 240 0 240 0 0 799 0 800 58 16 c146 43 246 27 283 -48
21 -40 21 -51 22 -804 l0 -763 207 0 207 0 0 802 -1 803 74 17 c137 33 225 15
265 -52 20 -34 20 -47 20 -802 l0 -768 240 0 240 0 -1 798 c0 438 -4 822 -8
852 -27 193 -119 314 -284 369 -86 29 -147 36 -317 36 -153 -1 -244 -14 -385
-56 l-65 -19 -45 22 c-58 28 -76 34 -129 46 -59 14 -239 12 -326 -4z"/>
<path d="M4800 4149 c-166 -36 -304 -126 -376 -246 -132 -219 -90 -494 102
-675 60 -56 164 -118 338 -202 173 -84 219 -113 282 -174 59 -58 85 -119 86
-200 2 -146 -70 -214 -220 -208 -124 5 -178 55 -186 173 l-4 58 -239 3 -240 2
4 -66 c9 -184 123 -364 283 -448 113 -60 194 -77 370 -81 421 -9 630 114 695
409 19 86 16 255 -5 312 -6 16 -11 29 -10 29 4 0 -23 65 -42 100 -77 145 -192
238 -468 375 -293 147 -352 202 -343 324 8 106 63 162 171 172 145 15 226 -53
234 -193 l2 -43 242 0 242 0 -4 47 c-17 254 -149 429 -381 508 -98 33 -130 37
-298 40 -116 2 -170 -2 -235 -16z"/>
<path d="M210 4135 c0 -4 39 -131 86 -283 47 -152 126 -405 174 -562 49 -157
139 -447 200 -645 62 -198 124 -399 139 -447 l26 -88 201 0 201 0 32 108 c18
59 41 134 51 167 10 33 34 112 54 175 19 63 46 151 59 195 103 330 200 645
207 670 8 28 62 207 115 375 13 41 39 127 59 192 20 64 39 123 42 132 6 14
-20 16 -250 16 l-255 0 -10 -37 c-6 -21 -53 -220 -106 -443 -53 -223 -116
-487 -141 -588 -43 -176 -52 -216 -53 -236 -1 -5 -3 -7 -6 -4 -5 5 -142 561
-200 813 -10 44 -89 364 -104 425 l-17 65 -252 3 c-138 1 -252 0 -252 -3z"/>
</g>
</svg>
